:SAMPLES-PER-SECOND 30
:FULLY-SPECIFIED
:DEGREES
49
root  61.757 39.8586 -4.00408 -1.7789 -86.3527 0.672134
RightUpLeg  5.0044 -9.01914 -2.47153
RightLeg  10.0401 -16.3163 2.87607
RightFoot  -12.2763 -0.0974852 -1.81689
RightToes  0.00048216 0.542163 -0.142577
Spine  7.22035 0.453195 12.3042
Spine1  10.3866 1.94273 -3.13664
HEad  16.7958 -3.32048 -6.60566
LeftShoulder1  7.93212 -11.4337 -46.3113
LeftArm  -12.9171 13.0657 -30.0169
LeftForeArm  26.3676 -26.1292 -4.18256
LeftHand  -0.25398 0.0180481 5.50724
RightShoulder  4.97185 8.0719 36.9425
RightArm  -1.94397 5.76453 28.1367
RightForeArm  -3.99707 24.7156 5.48136
RightHand  -0.854178 1.64669 -14.239
LeftUpLeg  -20.0042 12.823 -2.23414
LeftLeg  9.35328 3.89974 -2.08346
LeftFoot  3.5772 0.547715 -4.32686
LeftToes  1.06249e-005 4.65856e-005 -8.18498e-006
50
root  60.6378 39.7038 -4.09408 -4.03046 -85.5971 2.45029
RightUpLeg  7.67775 -9.13449 -2.72366
RightLeg  9.75837 -16.5019 2.92364
RightFoot  -13.9708 -0.111043 -0.804214
RightToes  0.00048216 0.542163 -0.142577
Spine  7.08052 0.61191 11.7835
Spine1  11.1125 2.20867 -3.42321
HEad  16.1303 -3.94405 -5.98332
LeftShoulder1  7.93925 -11.4577 -46.2778
LeftArm  -11.7655 13.5615 -29.8435
LeftForeArm  24.3411 -22.2397 -3.66778
LeftHand  -0.25398 0.0180481 5.50724
RightShoulder  4.94708 8.05979 36.7787
RightArm  -2.08698 6.80087 28.5637
RightForeArm  -4.16019 25.2782 5.62771
RightHand  -0.987527 2.34235 -14.983
LeftUpLeg  -18.7504 5.39479 -0.0622292
LeftLeg  3.85284 12.4439 -4.75609
LeftFoot  3.42572 0.363584 -2.96224
LeftToes  1.06249e-005 4.65856e-005 -8.18498e-006
51
root  59.4226 39.4354 -4.14779 -4.21497 -84.7263 2.07484
RightUpLeg  10.0023 -9.82452 -3.13917
RightLeg  10.9375 -16.2613 2.75722
RightFoot  -15.9525 -0.0789219 0.743205
RightToes  0.00048216 0.542163 -0.142577
Spine  6.75592 0.648251 11.1754
Spine1  11.6483 2.28003 -3.58422
HEad  15.8513 -4.40333 -5.11958
LeftShoulder1  7.89717 -11.4443 -46.0676
LeftArm  -11.4498 13.9215 -29.474
LeftForeArm  23.5708 -17.2131 -3.92454
LeftHand  -0.25398 0.0180481 5.50724
RightShoulder  5.01769 8.24012 36.725
RightArm  -1.50211 7.29074 29.2859
RightForeArm  -5.09913 24.2258 5.44544
RightHand  -1.26974 3.81136 -16.2437
LeftUpLeg  -18.543 4.54688 -0.722976
LeftLeg  3.44424 13.9943 -4.80622
LeftFoot  2.67909 0.301309 -2.57574
LeftToes  1.06249e-005 4.65856e-005 -8.18498e-006
52
root  58.0943 39.1183 -4.15719 -3.72273 -84.3554 1.00185
RightUpLeg  12.1242 -11.9879 -4.01689
RightLeg  13.1535 -14.1698 2.23553
RightFoot  -17.6932 -0.015704 1.87614
RightToes  0.00048216 0.542163 -0.142577
Spine  6.31785 0.853282 10.5446
Spine1  11.8556 2.56166 -3.82703
HEad  15.958 -4.76793 -4.08474
LeftShoulder1  7.85903 -11.4298 -45.8844
LeftArm  -12.4071 14.537 -28.7871
LeftForeArm  24.5625 -11.6872 -4.51786
LeftHand  -0.25398 0.0180481 5.50724
RightShoulder  5.1819 8.53249 37.041
RightArm  -0.555058 6.64801 29.8627
RightForeArm  -5.90737 22.169 5.25415
RightHand  -1.46758 4.74768 -17.0546
LeftUpLeg  -18.6402 7.03745 -2.53262
LeftLeg  6.69627 11.778 -3.06034
LeftFoot  3.62534 0.0366689 -0.509704
LeftToes  1.06249e-005 4.65856e-005 -8.18498e-006
53
root  56.6939 38.8506 -4.14474 -7.78078 -84.7637 4.4024
RightUpLeg  14.1839 -15.9861 -5.97205
RightLeg  15.9639 -8.69562 1.04313
RightFoot  -18.9292 0.142083 3.99557
RightToes  0.00048216 0.542163 -0.142577
Spine  6.02409 1.3616 9.25096
Spine1  12.1227 3.19025 -4.09832
HEad  16.0306 -5.12907 -2.81947
LeftShoulder1  7.89824 -11.4207 -46.1489
LeftArm  -12.5057 15.3755 -27.7244
LeftForeArm  24.7399 -6.98793 -4.50706
LeftHand  -0.25398 0.0180481 5.50724
RightShoulder  5.46566 8.85334 38.1764
RightArm  -0.183538 5.0002 29.7951
RightForeArm  -5.51022 19.8722 5.55243
RightHand  -1.45946 4.66258 -17.0907
LeftUpLeg  -18.7593 11.0367 -4.93927
LeftLeg  11.2644 7.55665 -0.621487
LeftFoot  5.09988 -0.587737 3.88192
LeftToes  1.06249e-005 4.65856e-005 -8.18498e-006
54
root  55.3233 38.7028 -4.1378 -19.7361 -85.2964 15.6989
RightUpLeg  15.0214 -19.0798 -8.2916
RightLeg  20.3955 -2.99749 -0.869753
RightFoot  -18.5503 0.419536 8.88288
RightToes  0.00048216 0.542163 -0.142577
Spine  6.08519 1.87489 6.97463
Spine1  12.6631 3.76248 -4.27467
HEad  15.6298 -5.41574 -1.35612
LeftShoulder1  8.01702 -11.4248 -46.8481
LeftArm  -11.9587 16.2075 -26.4745
LeftForeArm  23.8537 -4.01215 -4.29443
LeftHand  -0.25398 0.0180481 5.50724
RightShoulder  5.84136 9.15851 39.9932
RightArm  -0.12881 2.84216 29.4477
RightForeArm  -4.26416 17.6209 6.16722
RightHand  -1.38614 4.23731 -16.9414
LeftUpLeg  -18.6181 13.7401 -6.86591
LeftLeg  15.7584 4.77661 1.34084
LeftFoot  4.18819 -1.02903 7.37266
LeftToes  1.06249e-005 4.65856e-005 -8.18498e-006
55
root  54.0481 38.7029 -4.13039 -33.5071 -85.3525 28.9893
RightUpLeg  12.544 -15.946 -8.68411
RightLeg  28.5679 -4.36919 -2.95291
RightFoot  -14.0292 0.217683 13.6994
RightToes  0.00048216 0.542163 -0.142577
Spine  6.63772 2.03947 4.49951
Spine1  12.9428 3.88415 -4.32598
HEad  14.7493 -5.38664 -0.101706
LeftShoulder1  8.11582 -11.4466 -47.3669
LeftArm  -11.8102 17.1389 -25.721
LeftForeArm  22.9985 -2.94104 -4.20063
LeftHand  -0.25398 0.0180481 5.50724
RightShoulder  6.14215 9.36082 41.5156
RightArm  0.482768 0.191261 29.8224
RightForeArm  -2.70243 15.6039 6.88764
RightHand  -1.34454 3.91072 -16.9964
LeftUpLeg  -17.6447 14.187 -7.38721
LeftLeg  19.0967 4.88178 2.27056
LeftFoot  0.861615 -0.80876 7.43183
LeftToes  1.06249e-005 4.65856e-005 -8.18498e-006
56
root  52.8653 38.8029 -4.10112 -43.7382 -85.3509 39.0065
RightUpLeg  7.02348 -13.0956 -8.75134
RightLeg  39.998 -5.80823 -5.45965
RightFoot  -4.48729 -0.766548 13.1647
RightToes  0.00048216 0.542163 -0.142577
Spine  7.63455 1.90324 2.50702
Spine1  12.5639 3.62012 -4.22792
HEad  13.6786 -4.7915 0.410559
LeftShoulder1  8.11066 -11.4427 -47.3487
LeftArm  -12.0145 18.2994 -25.9434
LeftForeArm  22.543 -3.48887 -4.14978
LeftHand  -0.25398 0.0180481 5.50724
RightShoulder  6.23117 9.37974 42.0933
RightArm  3.03088 -3.16166 31.1597
RightForeArm  -1.34905 14.5693 7.46786
RightHand  -1.2519 3.31516 -16.883
LeftUpLeg  -15.8373 15.016 -7.22549
LeftLeg  20.4857 4.85123 2.33244
LeftFoot  -2.4757 -0.415455 5.56048
LeftToes  1.06249e-005 4.65856e-005 -8.18498e-006
57
root  51.7721 38.9018 -4.05688 -56.8665 -85.5785 52.1456
RightUpLeg  0.0681462 -10.7083 -8.76417
RightLeg  50.7162 -5.02356 -6.8591
RightFoot  5.09879 -1.14544 8.08787
RightToes  0.00048216 0.542163 -0.142577
Spine  8.74441 1.7671 0.588522
Spine1  12.1151 3.20068 -3.92916
HEad  12.5274 -3.52896 0.113613
LeftShoulder1  8.05049 -11.3717 -47.2189
LeftArm  -12.5174 19.1941 -26.801
LeftForeArm  22.6361 -4.95274 -4.11419
LeftHand  -0.25398 0.0180481 5.50724
RightShoulder  6.20059 9.28689 42.197
RightArm  8.02322 -6.95689 32.5341
RightForeArm  -0.623628 15.2195 7.56932
RightHand  -1.10745 2.48164 -16.4941
LeftUpLeg  -13.9032 16.6197 -7.11609
LeftLeg  20.7502 4.24193 2.11128
LeftFoot  -4.6858 -0.223983 4.37319
LeftToes  1.06249e-005 4.65856e-005 -8.18498e-006
58
root  50.7176 39.0221 -4.00783 -70.6855 -85.9434 66.0526
RightUpLeg  -6.36807 -8.46263 -8.39806
RightLeg  57.8499 -3.51688 -6.48085
RightFoot  8.62015 -0.773773 4.64329
RightToes  0.00048216 0.542163 -0.142577
Spine  9.63428 1.56673 -1.00523
Spine1  12.1512 2.60229 -3.31205
HEad  11.2169 -1.8122 -0.473733
LeftShoulder1  8.01648 -11.2559 -47.3904
LeftArm  -13.0858 19.0366 -27.7492
LeftForeArm  23.1261 -6.48561 -4.11799
LeftHand  -0.25398 0.0180481 5.50724
RightShoulder  6.2098 9.2249 42.4836
RightArm  13.9938 -10.7882 33.2389
RightForeArm  -0.972178 17.2039 6.99333
RightHand  -1.05507 2.11803 -16.4537
LeftUpLeg  -12.044 17.4447 -6.74415
LeftLeg  20.7308 4.44833 2.19007
LeftFoot  -6.39134 -0.136755 4.05797
LeftToes  1.06249e-005 4.65856e-005 -8.18498e-006
